<svg width="156" height="17" viewBox="0 0 156 17" fill="none" xmlns="http://www.w3.org/2000/svg">
<path d="M70.0455 15.4303L70.8323 15.7184C69.9038 16.24 69.2586 16.0843 69.9668 16.4969C70.0376 15.4459 72.9883 16.3023 73.0591 15.2357L73.5784 15.4381C73.4289 15.4381 73.4132 15.5004 73.2637 15.4926C74.2787 15.9675 73.9797 14.7141 75.2701 14.8075C75.7186 14.8776 76.057 15.0177 75.7344 15.1579L76.7258 14.862C77.017 14.862 76.9461 15.0566 76.6629 15.0489L78.1815 14.9087C78.4748 14.6922 78.7853 14.4995 79.11 14.3326C79.5034 14.4728 78.9211 14.4572 79.0234 14.5817L79.8575 14.2937C80.2116 14.5506 79.527 14.8464 78.9448 14.8309C79.771 15.8507 79.6293 14.535 81.3525 15.08L80.5657 15.2435C81.1007 15.8196 81.7145 15.5783 82.6351 15.913C82.4069 15.7262 80.786 15.0489 81.6909 14.7452C82.0574 14.8401 82.447 14.7899 82.7767 14.6051C82.7767 14.9788 83.2724 14.8698 83.8783 14.8153V15.3213C84.5235 15.1423 84.4606 14.8932 84.8304 14.6518C85.063 14.64 85.2934 14.7015 85.4885 14.8274C85.6836 14.9533 85.8334 15.1371 85.9163 15.3525C87.0887 15.3525 85.0822 14.7842 86.4513 14.574C87.4044 14.6465 88.361 14.4861 89.2367 14.1068C89.9213 14.2392 89.1344 14.4183 89.3862 14.5506L89.9686 14.1146C90.1102 14.1146 90.0708 14.2392 90.0551 14.3093C90.5508 14.1224 90.0551 13.8032 90.8419 13.6242C91.0229 13.0714 92.5258 14.3248 93.4622 13.6242C93.714 13.7487 93.3677 13.9356 93.4622 14.1224C94.2386 13.8865 94.9796 13.5487 95.6653 13.1181L96.6332 13.3828C95.9092 13.0558 96.7669 12.5498 97.5144 12.1372C97.2548 11.9737 97.0266 11.8336 96.8849 11.7635L98.0967 11.4132C98.2541 11.4832 98.1439 11.6623 97.9551 11.8881L98.1596 11.8647C98.6082 12.0204 98.4036 12.324 98.1124 12.6432L97.6403 12.3707C97.3571 12.6899 97.0974 13.0481 97.184 13.3283C97.3037 13.2517 97.4373 13.1988 97.5774 13.1726C97.5066 13.2583 97.4593 13.3361 97.5065 13.3828C97.5538 13.4295 97.6718 13.3128 97.8606 13.1726L98.1833 13.702L98.2383 13.4762L99.8829 13.6942C100.992 13.0325 101.929 12.1372 103.738 11.7479C103.321 12.1917 103.699 12.4174 103.738 12.9001C103.188 12.433 102.338 13.2349 101.378 13.2115C101.881 13.2115 101.795 13.4607 101.677 13.5541L103.329 12.9468C103.329 13.3439 103.723 13.2115 104.179 13.3361C103.77 12.5576 105.399 12.7211 106.06 12.3941C106.13 12.651 105.989 12.9391 105.139 12.9546C106.13 13.4529 106.248 11.927 107.208 12.324C107.004 12.324 106.894 12.324 106.823 12.4642C107.279 12.1839 108.467 12.2462 108.216 12.4642H108.019C109.388 12.4175 112.173 12.0438 112.292 11.3587C112.283 11.6828 112.233 12.0046 112.142 12.3162L114.298 9.79383C114.156 10.3855 115.14 11.6311 114.054 12.0905C114.533 12.168 115.025 12.0973 115.462 11.8881C115.226 11.8336 114.802 11.1095 115.101 11.055C115.634 11.3584 116.209 11.5839 116.808 11.7246C116.462 11.6467 116.714 10.7125 117.241 10.6736C117.178 10.8215 117.398 11.5455 117.241 11.6623L118.421 10.6268C118.122 10.8215 118.468 11.4054 118.791 11.5766C118.633 11.4365 119.924 11.4287 120.254 11.2964L119.672 11.1718C121.167 11.0862 120.947 9.73933 122.403 9.56805C122.253 9.77047 122.135 10.7358 122.898 10.7358C123.166 10.2376 124.063 8.40027 125.259 7.84752L125.542 8.05772L126.471 7.59839C125.656 8.74766 124.702 9.79353 123.63 10.7125C124.212 10.837 123.827 10.9928 124.653 10.8448C124.976 11.0395 124.259 11.273 124.016 11.3197L125.967 11.1874C125.794 10.6813 127.344 10.4089 127.194 9.99624C126.534 10.2843 125.873 10.6035 125.204 10.876C125.038 10.3855 126.164 9.2255 127.525 9.0698C127.903 9.21772 127.431 10.0352 127.525 10.1987C127.925 9.91348 128.402 9.75348 128.894 9.73933L128.375 10.113C129.162 10.1753 129.476 9.21772 130.476 9.55248C130.79 9.55248 131.53 10.0507 131.53 9.73154C131.206 9.34754 130.968 8.89973 130.833 8.41786C130.697 7.93599 130.666 7.43108 130.743 6.93665C131.468 7.04273 132.184 7.20411 132.883 7.41933C133.489 7.77745 132.333 8.67275 132.883 8.97638C132.883 8.83624 133.127 8.60268 133.23 8.52483C133.584 8.57933 133.182 8.98416 133.883 8.78175C133.883 8.23678 135.331 8.52483 134.127 8.26792C134.788 7.97987 134.913 8.26792 135.7 8.03436C135.37 7.75409 136.188 6.74201 136.849 6.47732C136.849 6.61745 137.022 6.75759 137.117 6.81987C138.541 6.58631 139.351 6.65638 140.665 6.34497C140.815 6.43839 141.452 6.43839 141.263 6.72644C141.45 6.51337 141.692 6.3546 141.964 6.26711C142.861 6.52403 141.082 6.54738 141.806 6.94443C141.806 6.63302 142.758 6.28269 143.286 5.95571C142.994 5.5353 141.932 6.18148 141.397 6.50846C141.248 5.87007 142.09 4.95141 143.38 4.34416C144.419 3.93154 143.947 4.64779 144.112 4.51544C146.181 4.14953 145.552 2.95839 147.346 2.95839C148.133 3.18416 147.59 3.73692 147.818 4.00161C146.984 4.39866 146.401 4.11061 145.811 4.28967H146.598C146.271 4.55715 145.865 4.71282 145.442 4.73342C146.102 4.94363 148.88 3.86926 150.54 3.78362C150.784 3.57342 151.217 3.30094 150.942 3.19973L150.469 3.39436C149.919 3.19195 151.256 2.69369 150.595 2.70926C151.223 2.16814 151.982 1.79789 152.799 1.6349L153.105 2.03973C153.05 1.91517 152.429 1.95409 152.208 2.17208C152.531 1.85289 153.782 2.35893 154.042 1.62711L153.302 1.51034C153.892 1.08215 154.545 0.342551 155.403 0.241343C154.892 -0.101207 155.23 0.350336 154.49 0C155.191 0.498255 152.405 0.615035 153.42 1.05101C152.633 0.622821 152.319 1.11329 151.39 0.825236C151.461 0.96537 151.752 1.04322 151.044 1.15222C151.017 1.2147 150.979 1.2725 150.934 1.32349C151.082 1.33006 151.226 1.37576 151.351 1.45584C151.115 1.8996 150.013 2.18765 149.691 2.46792C149.258 2.46792 149.816 2.24215 149.541 2.14094L149.069 2.56134C148.912 2.24215 147.826 2.29664 148.731 1.83732L147.857 2.06309C147.281 2.00157 146.7 2.11278 146.189 2.38228C145.756 2.38228 145.253 3.03624 145.544 2.67812C145.111 2.87275 144.67 3.05181 144.23 3.23087V3.14524C142.868 3.4255 141.578 4.36752 139.886 4.11839C139.37 4.38439 138.806 4.54834 138.226 4.60107L138.006 4.33638C137.439 4.56215 136.18 4.40644 135.991 4.76456C135.205 4.09503 133.104 5.17718 132.057 5.24725V5.63651C131.288 5.78416 130.535 6.00311 129.807 6.29047L129.933 6.62524C129.209 7.04564 127.91 6.72644 126.699 6.97557C126.762 6.82765 127.076 6.81208 127.305 6.85101C125.731 6.34497 124.338 7.94094 122.922 7.55946C122.805 7.63036 122.676 7.67725 122.54 7.69731C122.405 7.71738 122.267 7.71021 122.135 7.67624H122.214H122.08C121.923 7.63732 121.765 7.5906 121.592 7.55946C121.722 7.62003 121.86 7.66448 122.001 7.69181C121.661 7.75165 121.329 7.84825 121.01 7.97987L120.789 7.62953H120.703C120.317 7.55168 120.435 7.84752 120.703 8.09665C120.536 8.17758 120.38 8.27964 120.239 8.40027C119.853 7.84752 119.271 8.7506 118.775 8.16671C118.563 8.51705 116.895 8.6494 116.784 9.32671C116.784 9.24886 116.643 9.21772 116.847 9.18658C116.429 9.12046 115.999 9.1858 115.62 9.37342L115.384 8.92966L114.534 9.70819C113.936 9.4902 113.684 9.35007 114.196 8.92966C112.921 9.65369 113.133 9.27221 112.048 9.97289V9.66148C111.638 9.71597 111.025 10.1987 110.749 9.97289C109.766 9.47463 106.193 10.3855 103.786 10.043C104.321 10.9071 102.645 9.73154 102.621 10.44C102.464 10.2376 102.118 10.1442 102.487 9.92618C101.299 10.2376 100.646 9.73933 99.8671 10.4011C99.7097 10.1987 100.095 10.0663 99.9615 9.94953C99.875 10.004 99.5996 10.1675 99.4658 10.0507C99.332 9.93396 99.6232 9.85611 99.8042 9.74712C98.5846 9.88725 98.5059 10.5256 98.4665 11.1874C98.2469 11.0516 97.984 11.0019 97.7292 11.048C97.4745 11.094 97.2464 11.2326 97.0895 11.4365C96.8535 11.2497 96.4758 11.0628 97.239 10.9383C96.8063 10.9383 94.5795 10.8215 94.5716 11.3197C94.43 11.203 93.9658 11.3197 93.8556 11.3898C93.185 11.3894 92.515 11.4284 91.8491 11.5066L92.1166 11.5689C91.7862 12.1917 91.3298 11.7479 90.5429 11.8647V11.8024C88.7568 11.4677 89.7954 12.0515 88.0329 11.6545L88.1431 12.0204C88.0329 12.7989 86.5694 11.6311 85.5937 12.0204L85.9635 12.215C85.4284 12.5187 84.3898 11.203 83.8154 11.1251C83.6895 11.0628 83.9963 11.0083 84.1616 10.946C82.698 10.5412 84.0042 11.4443 82.9262 11.6078C82.7138 11.3509 83.1544 10.9227 82.4226 10.9071C82.0528 10.7125 80.3611 11.8569 79.3461 11.3898C79.5742 11.5844 79.7945 11.7791 79.3067 11.9503C78.5198 12.0593 77.1979 11.273 76.5291 11.9503C76.4268 11.8958 76.3875 11.8413 76.3796 11.7946C75.7973 11.9815 74.4833 12.1372 74.1371 12.4953C73.5548 11.2263 70.5097 13.2738 70.4782 12.0515L68.6764 12.1683V12.0438C68.3295 11.9961 67.9763 12.0199 67.6392 12.1137C67.302 12.2075 66.9881 12.3692 66.7171 12.5887C66.4495 12.5187 66.6462 12.4019 66.662 12.3396C65.5517 12.0698 64.3787 12.2432 63.3966 12.8223L63.2392 12.4408C62.8615 12.6744 60.7842 11.8881 59.1397 12.3785C59.1537 12.3381 59.1765 12.3011 59.2064 12.2702C59.2363 12.2393 59.2726 12.2152 59.3128 12.1995C57.4637 12.6977 54.8278 11.2263 54.1747 12.6432L52.9472 13.0169C54.5209 13.0948 52.7269 13.6319 53.38 13.8499C52.7584 13.9434 51.7512 13.4607 52.5223 13.3672L52.6482 13.4373C52.9157 12.6977 50.6575 13.2193 50.6968 12.7211C47.5494 12.8145 44.5043 12.4642 41.5772 12.4408L41.9156 13.0091H40.9005C40.6251 12.8768 40.5386 12.5654 41.2625 12.5809C40.8769 12.2695 40.0428 12.8612 40.0271 12.978C38.6029 12.7444 40.5779 12.3162 40.1451 12.3007L39.5471 12.3396L39.6809 12.4097C39.2009 12.6432 39.1616 12.8846 38.2882 12.8612C37.7295 12.7444 38.0049 12.5031 37.7846 12.4797C37.7846 12.4408 37.7138 12.4252 37.4541 12.4797L36.1715 12.4097L36.6751 12.869C36.1086 13.0792 35.4712 12.8223 36.0535 13.3439C35.1958 12.5654 31.2773 12.9391 30.7501 12.6744C29.9179 12.918 29.0402 12.9686 28.185 12.8223C28.4211 12.9313 28.5391 13.4373 27.6972 13.3361C28.0748 12.324 26.1943 12.7678 25.5805 11.9659C26.1392 12.5187 23.22 11.9036 24.0855 12.6821C23.3931 12.5264 24.0855 12.2929 23.574 11.9893C22.6697 12.0673 21.7585 11.9856 20.883 11.7479C19.9101 11.4427 18.9123 11.2213 17.9009 11.0862C17.8458 11.2185 18.1527 11.4754 17.6884 11.6078L16.7363 10.7592C16.3271 10.7592 16.2327 11.4754 15.5875 10.8838C15.6741 11.0161 15.8 11.2107 15.5246 11.2107C13.5731 10.6295 11.5896 10.159 9.58384 9.80161C8.57822 9.60355 7.59119 9.32229 6.63315 8.96081C5.65582 8.61595 4.73768 8.12497 3.91065 7.50497C4.33555 7.93316 3.98933 7.83973 3.58804 7.70738C3.82409 7.8553 3.47002 8.02658 3.45429 8.22121C2.98218 7.86309 2.50219 7.54389 2.04582 7.16242C1.57371 7.52054 0.361951 6.50846 0 6.89772L0.535053 7.02228C-0.361957 7.28698 0.975686 8.57933 0.605867 9.24886C1.58943 8.96859 2.30547 10.9305 3.91065 10.4867C4.14671 10.7358 3.59591 10.6346 3.69033 10.8526C4.1231 10.658 4.5244 10.7436 5.2247 11.094L5.11453 11.1407C5.98026 11.3588 6.82532 11.6506 7.64032 12.0126C8.42717 12.3007 9.21402 12.6277 10.3471 13.0247L10.2605 12.6277C10.5489 12.7285 10.8157 12.8816 11.0474 13.0792C11.7556 12.6744 9.62318 12.7133 10.2999 12.2306C10.7956 13.157 13.8879 13.0091 14.1869 13.9434C14.9738 14.0757 14.0295 13.484 14.8243 13.6164L14.9895 13.8811L15.2413 13.6242C15.7528 13.7565 15.9731 14.0835 15.9573 14.2859C15.7874 14.2662 15.6158 14.2662 15.4459 14.2859C16.0832 14.6674 17.3737 14.5272 17.594 14.6285C17.3422 14.5506 17.0983 14.4572 16.8465 14.3715C17.9481 14.4416 19.1598 14.6051 20.3558 14.7608C21.5087 14.9138 22.6751 14.94 23.8337 14.8387L23.6842 14.6518C25.3209 14.4728 24.9589 14.9399 26.7293 14.9321H26.6664C27.0857 14.7777 27.5361 14.7243 27.9804 14.7764C27.524 14.9554 28.7673 15.2123 28.2007 15.407C29.9633 15.1579 29.082 15.1812 30.2544 14.6285L30.4905 14.9788C30.8604 14.6756 31.3328 14.5225 31.8124 14.5506C31.0806 14.7764 32.3553 15.0099 31.537 15.3291C33.3703 16.022 34.2988 14.7764 35.1172 15.7106C35.9827 14.9321 33.5435 15.2435 34.0156 15.08C33.6221 14.8075 34.7237 14.4961 35.2981 14.5817C35.8725 14.6674 36.2817 15.625 37.761 15.625C37.6193 15.625 37.6036 15.6795 37.462 15.6795C38.0128 15.8819 38.5478 15.407 39.2245 15.734C39.6101 15.2513 40.1136 15.734 40.2159 15.1501L38.8626 15.2902C39.6494 15.1267 40.3497 14.4183 41.6166 14.753C41.4003 14.9283 41.1518 15.0605 40.8848 15.1423C41.2546 15.3213 41.6008 15.0177 41.9785 15.1968C41.8762 15.8196 40.334 15.3447 39.5078 15.8118C39.9091 16.0687 41.0815 15.3681 40.6566 16.0376C41.2467 15.1812 42.1201 16.131 43.1115 15.477L43.0486 15.843C43.2946 15.7204 43.5614 15.6438 43.8355 15.6172L43.3161 16.0999C44.103 15.6872 44.8898 16.4346 45.6767 16.2089C44.0479 16.2089 45.3069 15.7651 44.6145 15.5082C46.6131 14.9788 45.7868 16.458 48.0294 16.24C47.7225 16.3023 46.8806 16.0454 47.3527 15.8585C47.7968 15.9091 48.2269 16.0439 48.6195 16.2556C50.0988 16.1466 48.3834 15.8741 49.0129 15.6405C49.5244 16.0765 49.7369 15.4381 50.3821 15.2824V15.6561C52.0817 15.8663 50.8148 14.8776 52.3413 15.1267L51.7118 15.6639L52.4987 15.516L52.3492 15.9442C52.9719 15.6771 53.6666 15.6223 54.3242 15.7885C54.1196 15.5315 54.4186 15.1034 55.1661 15.08C55.6854 15.2902 54.8907 15.4381 55.953 15.3681C55.7169 15.6094 55.4573 15.9052 54.993 15.5705C54.9458 15.695 54.757 15.8118 54.7098 15.9286C55.2928 16.0567 55.8971 16.0567 56.4802 15.9286C56.3377 15.9268 56.1965 15.9004 56.0631 15.8507L57.5896 15.298C57.8414 15.4303 57.6447 15.5471 57.4559 15.6639C57.7774 15.5542 58.106 15.4658 58.4394 15.3992C58.3293 15.7028 58.3607 16.022 57.7155 16.1777L59.1791 15.804C59.2814 15.9364 59.9659 16.1544 59.7535 16.2711C60.5403 16.4346 61.7363 15.6328 62.8222 15.8507C62.9319 15.7543 63.0696 15.6943 63.2156 15.6795C64.2307 15.7262 65.1355 16.0765 66.363 15.625L67.0554 16.1544C67.9996 16.0064 66.1191 15.4848 67.677 15.2435C68.7865 15.0333 68.1098 15.695 68.5032 15.8352C68.8587 15.5717 69.271 15.3931 69.7078 15.3134C70.1446 15.2337 70.5941 15.2551 71.0212 15.3758C70.6988 15.4279 70.3717 15.4462 70.0455 15.4303ZM81.6358 14.7608C81.4155 14.8542 80.9748 15.1189 80.8017 14.9009C81.0535 14.4572 81.266 14.6596 81.6358 14.7608ZM99.2219 12.7989C99.0645 12.9391 98.8049 12.9001 98.498 12.7989C98.7407 12.7383 98.9949 12.7383 99.2376 12.7989H99.2219ZM147.102 2.4757C146.582 2.52242 146.763 2.52242 147.117 2.4757H147.102ZM148.14 2.36671C148.227 2.28886 148.203 2.23436 148.14 2.19544C148.093 2.31222 147.873 2.3745 147.613 2.42121C147.731 2.52242 147.881 2.52242 148.156 2.36671H148.14ZM37.5721 12.5498L37.7767 12.651C37.3361 12.7522 37.462 12.6432 37.5721 12.5498Z" fill="#8B5E35"/>
</svg>
